<?xml version="1.0" standalone="no"?>
<!DOCTYPE svg PUBLIC "-//W3C//DTD SVG 20010904//EN"
 "http://www.w3.org/TR/2001/REC-SVG-20010904/DTD/svg10.dtd">
<svg version="1.0" xmlns="http://www.w3.org/2000/svg"
 width="1166.000000pt" height="1280.000000pt" viewBox="0 0 1166.000000 1280.000000"
 preserveAspectRatio="xMidYMid meet">
<metadata>
Created by potrace 1.16, written by Peter Selinger 2001-2019
</metadata>
<g transform="translate(0.000000,1280.000000) scale(0.100000,-0.100000)"
fill="#000000" stroke="none">
<path d="M4375 9284 c-129 -7 -355 -45 -505 -85 -576 -155 -1075 -534 -1388
-1055 -219 -364 -332 -774 -332 -1204 0 -316 63 -628 183 -910 276 -648 815
-1133 1483 -1332 151 -45 245 -67 348 -79 108 -12 558 -11 670 1 134 16 304
60 516 135 95 34 295 140 298 158 4 20 -13 38 -325 360 -95 97 -177 177 -183
177 -5 0 -38 -11 -72 -24 -118 -44 -212 -68 -337 -87 -384 -57 -786 31 -1106
241 -172 113 -357 294 -456 445 -136 207 -203 367 -255 612 -37 176 -39 411
-5 583 67 343 216 627 451 862 215 214 481 360 800 439 87 22 116 24 335 24
239 0 240 0 378 -34 75 -19 139 -32 141 -30 2 2 21 36 41 74 54 98 77 141 119
213 20 35 36 66 36 68 0 4 84 145 122 204 42 64 36 80 -42 107 -85 30 -278 82
-349 94 -217 36 -415 51 -566 43z"/>
<path d="M7030 9284 c-205 -13 -500 -74 -674 -141 -50 -19 -107 -41 -127 -48
-78 -30 -336 -174 -419 -234 -348 -254 -599 -554 -776 -926 -61 -128 -116
-274 -108 -286 3 -5 178 -9 389 -9 l385 0 13 23 c8 12 34 56 58 97 274 466
770 767 1313 796 267 14 534 -44 792 -171 71 -36 139 -72 150 -80 10 -8 55
-41 99 -73 334 -246 573 -649 630 -1062 123 -886 -483 -1700 -1364 -1831 -279
-42 -563 -8 -832 99 -308 123 -597 368 -776 657 -31 49 -125 252 -148 317 -15
40 -33 107 -42 148 -8 41 -20 81 -25 88 -8 9 -93 12 -362 12 -193 0 -357 -4
-365 -9 -27 -17 39 -314 118 -530 71 -194 222 -462 360 -636 76 -97 264 -287
364 -367 285 -230 603 -384 967 -468 139 -32 237 -40 505 -40 338 0 456 17
721 100 607 193 1105 625 1389 1205 71 145 153 369 175 478 5 29 17 81 26 117
24 97 32 669 10 795 -19 118 -51 262 -66 300 -7 17 -18 50 -25 75 -42 143
-154 378 -257 537 -171 262 -404 497 -672 677 -166 112 -476 256 -636 295 -19
5 -62 16 -95 25 -173 47 -515 81 -695 70z"/>
<path d="M4720 7364 c-48 -21 -87 -60 -118 -119 -22 -42 -26 -63 -27 -135 0
-109 27 -169 99 -217 40 -28 58 -33 105 -33 31 0 69 7 86 16 19 10 31 11 33 5
2 -6 24 -11 48 -11 l44 0 0 140 0 141 -92 -3 -93 -3 -3 -37 -3 -38 50 0 51 0
0 -44 c0 -48 -11 -62 -61 -76 -52 -15 -104 4 -134 48 -22 32 -25 48 -25 118 0
74 3 85 30 122 44 61 121 74 197 34 31 -17 38 -15 51 13 19 42 14 55 -30 75
-53 24 -158 26 -208 4z"/>
<path d="M5275 7356 c-111 -53 -162 -193 -121 -330 32 -105 116 -166 228 -166
151 0 245 106 241 270 -4 153 -97 250 -240 250 -40 0 -73 -7 -108 -24z m181
-82 c65 -43 89 -177 46 -259 -22 -44 -42 -59 -90 -70 -89 -19 -172 65 -172
175 0 136 116 219 216 154z"/>
<path d="M5790 7125 l0 -255 45 0 45 0 0 89 0 88 70 5 c113 8 190 74 190 163
0 63 -28 106 -90 138 -48 24 -64 27 -157 27 l-103 0 0 -255z m228 140 c54 -63
-1 -135 -103 -135 l-35 0 0 86 0 87 58 -6 c45 -5 62 -12 80 -32z"/>
<path d="M7467 7359 c-65 -34 -96 -114 -66 -172 16 -31 70 -76 99 -84 14 -3
48 -18 75 -33 45 -24 50 -31 53 -64 3 -34 0 -38 -33 -52 -41 -17 -90 -11 -147
17 l-37 19 -22 -31 c-28 -40 -18 -58 47 -82 72 -27 188 -21 236 13 48 32 68
69 68 124 0 65 -42 109 -151 156 -81 36 -84 38 -87 73 -3 32 0 36 30 46 32 11
54 9 150 -15 22 -5 29 -1 41 23 19 37 12 49 -42 68 -62 22 -167 19 -214 -6z"/>
<path d="M3773 7358 c-11 -18 -151 -363 -171 -421 -18 -53 -14 -60 37 -74 30
-7 45 11 68 84 l17 53 97 0 97 0 27 -70 c29 -75 39 -81 90 -58 30 14 29 36
-12 133 -14 33 -33 80 -44 105 -10 25 -37 93 -60 153 l-41 107 -48 0 c-28 0
-52 -5 -57 -12z"/>
<path d="M4190 7120 l0 -250 161 0 160 0 -3 38 -3 37 -107 3 -108 3 0 209 0
210 -50 0 -50 0 0 -250z"/>
<path d="M6280 7120 l0 -250 50 0 50 0 0 110 0 110 105 0 105 0 0 -110 0 -110
45 0 45 0 0 250 0 250 -45 0 -45 0 0 -105 0 -105 -105 0 -105 0 0 105 0 105
-50 0 -50 0 0 -250z"/>
<path d="M6996 7362 c-3 -5 -18 -42 -34 -83 -16 -41 -57 -141 -91 -224 -33
-82 -61 -155 -61 -161 0 -15 56 -38 75 -30 8 3 20 18 25 33 6 16 18 45 27 66
l16 37 99 0 c80 0 98 -3 98 -15 0 -26 48 -125 61 -125 18 0 79 23 79 30 0 3
-43 111 -95 240 l-94 235 -49 3 c-28 2 -53 -1 -56 -6z"/>
<path d="M7890 7120 l0 -250 165 0 165 0 0 34 c0 43 -8 46 -131 46 l-99 0 0
75 0 75 96 0 95 0 -3 33 -3 32 -92 3 -93 3 0 59 0 60 103 0 c56 0 108 4 115 9
8 5 12 21 10 37 l-3 29 -162 3 -163 2 0 -250z"/>
<path d="M6070 6568 c-37 -142 -118 -346 -162 -410 -10 -14 -18 -32 -18 -40 0
-8 73 -91 163 -184 89 -93 200 -208 246 -256 46 -49 91 -88 100 -88 39 0 235
361 307 567 58 163 118 421 102 440 -8 10 -85 13 -369 13 l-358 0 -11 -42z"/>
</g>
</svg>
